<svg width="257" height="25" viewBox="0 0 257 25" fill="none" xmlns="http://www.w3.org/2000/svg">
<path d="M6.11749 17.9194C6.1667 17.581 6.09289 17.3196 5.89605 17.1351C5.6992 16.9444 5.45315 16.7998 5.15789 16.7014C4.86262 16.603 4.59197 16.523 4.34591 16.4615C3.97068 16.3692 3.59545 16.2523 3.22022 16.1109C2.85114 15.9632 2.51282 15.7787 2.20525 15.5572C1.89768 15.3358 1.65471 15.0651 1.47632 14.7453C1.29793 14.4192 1.21796 14.0317 1.23642 13.5827C1.26102 13.066 1.39635 12.6138 1.6424 12.2263C1.88846 11.8388 2.20525 11.5158 2.59278 11.2575C2.98647 10.9991 3.41706 10.8084 3.88456 10.6854C4.35206 10.5624 4.81649 10.5039 5.27784 10.5101C5.92373 10.5224 6.51733 10.6485 7.05865 10.8884C7.60612 11.1283 8.04286 11.482 8.36888 11.9495C8.70105 12.417 8.86406 12.9952 8.85791 13.6842L6.69879 13.6749C6.7111 13.3674 6.65574 13.1029 6.53271 12.8814C6.41583 12.6538 6.2436 12.4785 6.016 12.3555C5.7884 12.2325 5.51466 12.1679 5.1948 12.1617C4.91799 12.1556 4.64425 12.2017 4.37359 12.3001C4.10909 12.3985 3.88149 12.5462 3.6908 12.743C3.5001 12.9399 3.38323 13.189 3.34017 13.4904C3.30326 13.7241 3.33709 13.9179 3.44167 14.0717C3.54624 14.2193 3.6908 14.3393 3.87534 14.4316C4.05988 14.5238 4.25364 14.6007 4.45664 14.6622C4.66578 14.7176 4.8534 14.7637 5.01948 14.8006C5.54235 14.9421 6.05598 15.1236 6.56039 15.345C7.0648 15.5603 7.47694 15.8648 7.79681 16.2585C8.11668 16.646 8.26123 17.1566 8.23048 17.7902C8.21202 18.3315 8.07054 18.799 7.80603 19.1927C7.54153 19.5802 7.2032 19.9001 6.79106 20.1523C6.37893 20.3983 5.9268 20.5798 5.4347 20.6967C4.94874 20.8136 4.46894 20.8689 3.99529 20.8628C3.34325 20.8505 2.72811 20.7151 2.14989 20.4568C1.57782 20.1984 1.11647 19.8263 0.76584 19.3403C0.421366 18.8482 0.249129 18.2484 0.249129 17.541L2.34366 17.5503C2.34366 17.9071 2.4144 18.2085 2.55588 18.4545C2.70351 18.7006 2.9065 18.8882 3.16486 19.0174C3.42936 19.1404 3.73693 19.205 4.08756 19.2111C4.37667 19.2111 4.66578 19.1711 4.95489 19.0912C5.25016 19.0051 5.50236 18.8667 5.71151 18.676C5.9268 18.4853 6.06213 18.2331 6.11749 17.9194ZM13.1577 12.743L11.1093 24.5167H8.93173L11.3307 10.6946H13.333L13.1577 12.743ZM18.9522 15.5388L18.9338 15.7326C18.86 16.3354 18.7154 16.9444 18.5001 17.5595C18.291 18.1685 18.0049 18.7283 17.642 19.2388C17.2852 19.7432 16.8454 20.1461 16.3225 20.4475C15.7997 20.749 15.1845 20.8904 14.4771 20.872C13.8559 20.8597 13.333 20.7121 12.9086 20.4291C12.4841 20.14 12.1458 19.7648 11.8936 19.3034C11.6414 18.8421 11.463 18.3376 11.3584 17.7902C11.26 17.2366 11.2231 16.6891 11.2477 16.1478L11.34 15.4096C11.4384 14.8252 11.6045 14.2409 11.8382 13.6565C12.0781 13.0721 12.3857 12.54 12.7609 12.0602C13.1362 11.5743 13.5821 11.1898 14.0988 10.9068C14.6156 10.6239 15.2092 10.4916 15.8796 10.5101C16.5624 10.5285 17.1191 10.6915 17.5497 10.9991C17.9803 11.3067 18.3063 11.7065 18.5278 12.1986C18.7554 12.6907 18.8969 13.229 18.9522 13.8133C19.0138 14.3977 19.0138 14.9729 18.9522 15.5388ZM16.7562 15.7233L16.7839 15.5203C16.8147 15.2066 16.8239 14.8652 16.8116 14.4961C16.8054 14.1271 16.7531 13.7795 16.6547 13.4535C16.5563 13.1213 16.3871 12.8476 16.1472 12.6323C15.9135 12.417 15.5875 12.3032 15.1692 12.2909C14.7878 12.2724 14.4433 12.3339 14.1357 12.4754C13.8282 12.6108 13.5575 12.8014 13.3238 13.0475C13.09 13.2936 12.8932 13.5734 12.7332 13.8872C12.5795 14.2009 12.4687 14.5269 12.4011 14.8652L12.115 16.6737C12.0966 17.0797 12.1519 17.4672 12.2811 17.8363C12.4165 18.1992 12.6256 18.4976 12.9086 18.7313C13.1977 18.9651 13.5637 19.0881 14.0066 19.1004C14.4618 19.1127 14.8524 19.0174 15.1784 18.8144C15.5044 18.6114 15.7751 18.3407 15.9904 18.0024C16.2057 17.6579 16.3748 17.2858 16.4979 16.8859C16.627 16.4799 16.7132 16.0924 16.7562 15.7233ZM20.364 15.8525L20.3916 15.6403C20.4655 14.9513 20.6346 14.2962 20.8991 13.6749C21.1636 13.0537 21.5143 12.5031 21.951 12.0233C22.3939 11.5374 22.9137 11.159 23.5104 10.8884C24.1132 10.6177 24.7837 10.4916 25.5219 10.5101C26.2354 10.5224 26.8475 10.67 27.358 10.953C27.8747 11.2359 28.293 11.6142 28.6129 12.0879C28.9389 12.5554 29.1665 13.0906 29.2957 13.6934C29.4249 14.2901 29.4587 14.9144 29.3972 15.5665L29.3787 15.7787C29.2988 16.4676 29.1235 17.1197 28.8528 17.7348C28.5883 18.3499 28.2346 18.8974 27.7917 19.3772C27.355 19.8509 26.8352 20.223 26.2323 20.4937C25.6357 20.7582 24.9713 20.8812 24.2393 20.8628C23.5319 20.8505 22.9198 20.7059 22.4031 20.4291C21.8926 20.1461 21.4743 19.7709 21.1483 19.3034C20.8284 18.8359 20.6039 18.3069 20.4747 17.7164C20.3455 17.1197 20.3086 16.4984 20.364 15.8525ZM22.5508 15.6403L22.5323 15.8525C22.5016 16.1908 22.4985 16.5476 22.5231 16.9228C22.5477 17.2981 22.6215 17.6487 22.7445 17.9747C22.8676 18.3007 23.0582 18.5683 23.3166 18.7775C23.575 18.9866 23.9194 19.0973 24.35 19.1096C24.8052 19.1219 25.202 19.0297 25.5403 18.8328C25.8786 18.636 26.1616 18.3715 26.3892 18.0393C26.6168 17.7071 26.7983 17.3442 26.9336 16.9505C27.0689 16.5507 27.1581 16.1601 27.2012 15.7787L27.2196 15.5665C27.2565 15.2343 27.2627 14.8806 27.2381 14.5054C27.2135 14.124 27.1397 13.7672 27.0166 13.435C26.8936 13.0967 26.7029 12.823 26.4446 12.6138C26.1862 12.3985 25.8417 12.2847 25.4111 12.2724C24.9498 12.2601 24.5499 12.3555 24.2116 12.5585C23.8733 12.7553 23.5903 13.0229 23.3627 13.3612C23.1351 13.6995 22.9537 14.0686 22.8183 14.4685C22.6892 14.8683 22.6 15.2589 22.5508 15.6403ZM33.8077 12.9552L32.4698 20.6782H30.2922L32.0269 10.6946H34.066L33.8077 12.9552ZM33.0419 15.3173L32.3775 15.3266C32.4513 14.7299 32.5959 14.1424 32.8112 13.5642C33.0326 12.9798 33.3248 12.457 33.6877 11.9956C34.0507 11.5281 34.4905 11.159 35.0072 10.8884C35.5301 10.6177 36.1329 10.4916 36.8157 10.5101C37.357 10.5224 37.8061 10.63 38.1628 10.833C38.5258 11.036 38.8056 11.3098 39.0025 11.6542C39.2055 11.9987 39.3377 12.3924 39.3992 12.8353C39.4608 13.2782 39.4638 13.7426 39.4085 14.2286L38.3381 20.6782H36.1513L37.2401 14.2009C37.277 13.8441 37.2647 13.5242 37.2032 13.2413C37.1417 12.9522 37.0064 12.7246 36.7972 12.5585C36.5881 12.3862 36.2867 12.297 35.893 12.2909C35.4624 12.2786 35.0841 12.3586 34.7581 12.5308C34.4321 12.703 34.1522 12.9399 33.9184 13.2413C33.6847 13.5365 33.494 13.8656 33.3463 14.2286C33.2049 14.5915 33.1034 14.9544 33.0419 15.3173ZM46.4948 17.9194C46.544 17.581 46.4702 17.3196 46.2734 17.1351C46.0765 16.9444 45.8305 16.7998 45.5352 16.7014C45.2399 16.603 44.9693 16.523 44.7232 16.4615C44.348 16.3692 43.9728 16.2523 43.5975 16.1109C43.2284 15.9632 42.8901 15.7787 42.5826 15.5572C42.275 15.3358 42.032 15.0651 41.8536 14.7453C41.6752 14.4192 41.5953 14.0317 41.6137 13.5827C41.6383 13.066 41.7737 12.6138 42.0197 12.2263C42.2658 11.8388 42.5826 11.5158 42.9701 11.2575C43.3638 10.9991 43.7944 10.8084 44.2619 10.6854C44.7294 10.5624 45.1938 10.5039 45.6551 10.5101C46.301 10.5224 46.8946 10.6485 47.436 10.8884C47.9834 11.1283 48.4202 11.482 48.7462 11.9495C49.0784 12.417 49.2414 12.9952 49.2352 13.6842L47.0761 13.6749C47.0884 13.3674 47.033 13.1029 46.91 12.8814C46.7931 12.6538 46.6209 12.4785 46.3933 12.3555C46.1657 12.2325 45.892 12.1679 45.5721 12.1617C45.2953 12.1556 45.0216 12.2017 44.7509 12.3001C44.4864 12.3985 44.2588 12.5462 44.0681 12.743C43.8774 12.9399 43.7605 13.189 43.7175 13.4904C43.6806 13.7241 43.7144 13.9179 43.819 14.0717C43.9235 14.2193 44.0681 14.3393 44.2526 14.4316C44.4372 14.5238 44.631 14.6007 44.8339 14.6622C45.0431 14.7176 45.2307 14.7637 45.3968 14.8006C45.9197 14.9421 46.4333 15.1236 46.9377 15.345C47.4421 15.5603 47.8542 15.8648 48.1741 16.2585C48.494 16.646 48.6385 17.1566 48.6078 17.7902C48.5893 18.3315 48.4478 18.799 48.1833 19.1927C47.9188 19.5802 47.5805 19.9001 47.1684 20.1523C46.7562 20.3983 46.3041 20.5798 45.812 20.6967C45.3261 20.8136 44.8462 20.8689 44.3726 20.8628C43.7206 20.8505 43.1054 20.7151 42.5272 20.4568C41.9551 20.1984 41.4938 19.8263 41.1431 19.3403C40.7987 18.8482 40.6264 18.2484 40.6264 17.541L42.721 17.5503C42.721 17.9071 42.7917 18.2085 42.9332 18.4545C43.0808 18.7006 43.2838 18.8882 43.5422 19.0174C43.8067 19.1404 44.1142 19.205 44.4649 19.2111C44.754 19.2111 45.0431 19.1711 45.3322 19.0912C45.6275 19.0051 45.8797 18.8667 46.0888 18.676C46.3041 18.4853 46.4394 18.2331 46.4948 17.9194ZM50.4255 15.8525L50.4532 15.6403C50.527 14.9513 50.6962 14.2962 50.9607 13.6749C51.2252 13.0537 51.5758 12.5031 52.0125 12.0233C52.4554 11.5374 52.9752 11.159 53.5719 10.8884C54.1747 10.6177 54.8452 10.4916 55.5834 10.5101C56.2969 10.5224 56.909 10.67 57.4196 10.953C57.9363 11.2359 58.3546 11.6142 58.6744 12.0879C59.0004 12.5554 59.228 13.0906 59.3572 13.6934C59.4864 14.2901 59.5202 14.9144 59.4587 15.5665L59.4403 15.7787C59.3603 16.4676 59.185 17.1197 58.9143 17.7348C58.6498 18.3499 58.2961 18.8974 57.8532 19.3772C57.4165 19.8509 56.8967 20.223 56.2939 20.4937C55.6972 20.7582 55.0328 20.8812 54.3008 20.8628C53.5934 20.8505 52.9814 20.7059 52.4647 20.4291C51.9541 20.1461 51.5358 19.7709 51.2098 19.3034C50.8899 18.8359 50.6654 18.3069 50.5362 17.7164C50.407 17.1197 50.3701 16.4984 50.4255 15.8525ZM52.6123 15.6403L52.5938 15.8525C52.5631 16.1908 52.56 16.5476 52.5846 16.9228C52.6092 17.2981 52.683 17.6487 52.8061 17.9747C52.9291 18.3007 53.1198 18.5683 53.3781 18.7775C53.6365 18.9866 53.981 19.0973 54.4116 19.1096C54.8668 19.1219 55.2635 19.0297 55.6018 18.8328C55.9402 18.636 56.2231 18.3715 56.4507 18.0393C56.6783 17.7071 56.8598 17.3442 56.9951 16.9505C57.1304 16.5507 57.2196 16.1601 57.2627 15.7787L57.2812 15.5665C57.3181 15.2343 57.3242 14.8806 57.2996 14.5054C57.275 14.124 57.2012 13.7672 57.0782 13.435C56.9551 13.0967 56.7644 12.823 56.5061 12.6138C56.2477 12.3985 55.9033 12.2847 55.4727 12.2724C55.0113 12.2601 54.6115 12.3555 54.2732 12.5585C53.9348 12.7553 53.6519 13.0229 53.4243 13.3612C53.1967 13.6995 53.0152 14.0686 52.8799 14.4685C52.7507 14.8683 52.6615 15.2589 52.6123 15.6403ZM63.943 12.7061L62.559 20.6782H60.3907L62.1253 10.6946H64.1829L63.943 12.7061ZM67.1909 10.6116L66.951 12.6876C66.8096 12.663 66.665 12.6415 66.5174 12.6231C66.3759 12.6046 66.2344 12.5954 66.0929 12.5954C65.7177 12.5892 65.3794 12.6415 65.078 12.7522C64.7765 12.863 64.512 13.0229 64.2844 13.232C64.0568 13.435 63.8661 13.6811 63.7124 13.9702C63.5586 14.2532 63.4386 14.57 63.3525 14.9206L62.8358 14.9575C62.8973 14.4715 63.0019 13.9671 63.1495 13.4443C63.3033 12.9214 63.5155 12.4354 63.7862 11.9864C64.0568 11.5312 64.4013 11.1652 64.8196 10.8884C65.2379 10.6054 65.7454 10.4701 66.3421 10.4824C66.4835 10.4824 66.625 10.4947 66.7665 10.5193C66.908 10.5439 67.0495 10.5747 67.1909 10.6116ZM71.1585 20.8628C70.4757 20.8505 69.8698 20.7182 69.3408 20.466C68.818 20.2076 68.3843 19.8601 68.0398 19.4234C67.6953 18.9805 67.4462 18.473 67.2924 17.9009C67.1387 17.3227 67.0864 16.7075 67.1356 16.0555L67.1725 15.6772C67.2401 15.0067 67.4032 14.3608 67.6615 13.7395C67.9199 13.1121 68.2643 12.5554 68.6949 12.0694C69.1317 11.5773 69.6453 11.1898 70.2358 10.9068C70.8264 10.6239 71.4846 10.4916 72.2104 10.5101C72.9055 10.5224 73.493 10.6669 73.9728 10.9437C74.4526 11.2206 74.834 11.5896 75.1169 12.051C75.3999 12.5062 75.5875 13.0229 75.6798 13.6011C75.7782 14.1793 75.7936 14.7791 75.7259 15.4004L75.5967 16.3508H68.1044L68.3628 14.7545L73.6498 14.7637L73.6867 14.57C73.7421 14.1824 73.7206 13.8164 73.6222 13.4719C73.5299 13.1275 73.3576 12.8445 73.1054 12.6231C72.8532 12.4016 72.5149 12.2847 72.0905 12.2724C71.6291 12.2601 71.2324 12.3555 70.9002 12.5585C70.5742 12.7615 70.3035 13.0352 70.0882 13.3797C69.8729 13.7241 69.7038 14.0994 69.5807 14.5054C69.4639 14.9052 69.3808 15.2958 69.3316 15.6772L69.2947 16.0463C69.2578 16.4092 69.267 16.7691 69.3224 17.1258C69.3777 17.4826 69.4854 17.8086 69.6453 18.1039C69.8053 18.393 70.0267 18.6298 70.3097 18.8144C70.5926 18.9928 70.9432 19.0881 71.3615 19.1004C71.8844 19.1127 72.3581 19.0051 72.7825 18.7775C73.2131 18.5437 73.6037 18.2423 73.9543 17.8732L75.0247 19.0081C74.7417 19.4326 74.3911 19.7832 73.9728 20.06C73.5606 20.3368 73.1116 20.5429 72.6256 20.6782C72.1458 20.8074 71.6568 20.8689 71.1585 20.8628ZM82.7753 18.4822L84.8514 6.50557H87.0382L84.5746 20.6782H82.6185L82.7753 18.4822ZM76.9439 15.871L76.9623 15.6772C77.0423 15.0621 77.1868 14.4469 77.396 13.8318C77.6113 13.2167 77.9004 12.6538 78.2633 12.1433C78.6324 11.6327 79.0815 11.2267 79.6105 10.9253C80.1456 10.6239 80.7731 10.4824 81.4928 10.5009C82.1202 10.5193 82.6431 10.6823 83.0614 10.9899C83.4797 11.2974 83.8057 11.6942 84.0394 12.1802C84.2793 12.6661 84.4423 13.1921 84.5285 13.758C84.6146 14.3178 84.6423 14.8652 84.6115 15.4004L84.5377 16.0278C84.4393 16.5937 84.2732 17.1658 84.0394 17.744C83.8057 18.3223 83.5012 18.8513 83.126 19.3311C82.7569 19.8109 82.314 20.1923 81.7973 20.4752C81.2867 20.7582 80.7023 20.8904 80.0441 20.872C79.3859 20.8474 78.8416 20.6813 78.411 20.3737C77.9804 20.06 77.6482 19.6571 77.4144 19.165C77.1807 18.6667 77.03 18.1316 76.9623 17.5595C76.8947 16.9813 76.8885 16.4184 76.9439 15.871ZM79.1583 15.6587L79.1399 15.8525C79.103 16.1724 79.0876 16.5138 79.0938 16.8767C79.0999 17.2396 79.1491 17.5872 79.2414 17.9194C79.3398 18.2454 79.5028 18.516 79.7304 18.7313C79.9642 18.9466 80.2902 19.0635 80.7085 19.082C81.1944 19.1004 81.625 18.9897 82.0003 18.7498C82.3816 18.5099 82.6984 18.1962 82.9506 17.8086C83.2028 17.4211 83.3812 17.009 83.4858 16.5722L83.7442 14.8837C83.7626 14.5761 83.7411 14.2716 83.6796 13.9702C83.6242 13.6688 83.5227 13.3951 83.3751 13.149C83.2275 12.9029 83.0306 12.703 82.7846 12.5492C82.5447 12.3893 82.2525 12.3063 81.908 12.3001C81.4528 12.2817 81.0591 12.3739 80.7269 12.5769C80.4009 12.7799 80.1303 13.0506 79.915 13.3889C79.7058 13.7272 79.5397 14.0963 79.4167 14.4961C79.2937 14.896 79.2076 15.2835 79.1583 15.6587ZM93.94 6.50557H96.1176L94.0046 18.676L93.4602 20.6782H91.4764L93.94 6.50557ZM100.842 15.5388L100.823 15.7326C100.743 16.3477 100.599 16.9628 100.39 17.578C100.187 18.1869 99.9037 18.7436 99.5408 19.248C99.184 19.7524 98.7411 20.1554 98.2121 20.4568C97.6892 20.752 97.071 20.8904 96.3575 20.872C95.7239 20.8597 95.1949 20.7028 94.7704 20.4014C94.3521 20.1 94.023 19.7094 93.7831 19.2296C93.5432 18.7498 93.3802 18.23 93.2941 17.6702C93.208 17.1043 93.1772 16.5507 93.2018 16.0094L93.2756 15.3819C93.3802 14.8099 93.5463 14.2347 93.7739 13.6565C94.0076 13.0721 94.3091 12.54 94.6781 12.0602C95.0472 11.5743 95.487 11.1898 95.9976 10.9068C96.5143 10.6177 97.1018 10.4824 97.76 10.5009C98.4489 10.5193 99.0087 10.6854 99.4393 10.9991C99.8699 11.3067 100.196 11.7065 100.417 12.1986C100.645 12.6907 100.786 13.229 100.842 13.8133C100.903 14.3977 100.903 14.9729 100.842 15.5388ZM98.6457 15.7233L98.6734 15.5203C98.7103 15.2066 98.7257 14.8652 98.7196 14.4961C98.7196 14.1271 98.6734 13.7764 98.5812 13.4443C98.4889 13.1121 98.3259 12.8414 98.0921 12.6323C97.8645 12.417 97.5354 12.3032 97.1048 12.2909C96.7235 12.2724 96.379 12.3339 96.0714 12.4754C95.7638 12.6108 95.4932 12.8014 95.2594 13.0475C95.0257 13.2874 94.8319 13.5642 94.6781 13.8779C94.5244 14.1916 94.4075 14.5177 94.3275 14.856L94.0692 16.5445C94.0507 16.9567 94.103 17.3534 94.226 17.7348C94.349 18.1162 94.552 18.433 94.835 18.6852C95.118 18.9312 95.4901 19.0604 95.9515 19.0727C96.4128 19.0912 96.8034 18.9989 97.1233 18.7959C97.4493 18.5929 97.7138 18.3253 97.9168 17.9932C98.126 17.661 98.289 17.295 98.4058 16.8952C98.5227 16.4953 98.6027 16.1047 98.6457 15.7233ZM104.699 19.4787L108.814 10.6946H111.213L105.363 22.2099C105.197 22.5544 105.006 22.8804 104.791 23.188C104.582 23.4955 104.342 23.7662 104.071 23.9999C103.801 24.2337 103.496 24.4152 103.158 24.5443C102.826 24.6797 102.45 24.7473 102.032 24.7473C101.841 24.7412 101.654 24.7196 101.469 24.6827C101.279 24.652 101.091 24.6151 100.906 24.572L101.063 22.865C101.131 22.8712 101.199 22.8773 101.266 22.8835C101.334 22.8958 101.402 22.9019 101.469 22.9019C101.82 22.9142 102.127 22.8681 102.392 22.7635C102.656 22.6651 102.887 22.5113 103.084 22.3022C103.287 22.093 103.465 21.8377 103.619 21.5363L104.699 19.4787ZM104.717 10.6946L105.732 18.2792L105.714 20.549L104.2 20.9366L102.447 10.6946H104.717Z" fill="white"/>
<path d="M122.814 4.06634V18.501H125.272C128.222 18.501 129.197 17.1777 129.685 16.516C131.058 14.6661 131.058 12.3423 131.058 11.1778C131.058 4.06634 127.308 4.06634 125.432 4.06634H122.814ZM119.68 1.42236H125.764C130.202 1.42236 131.672 3.22736 132.409 4.12721C134.411 6.59651 134.411 9.63483 134.411 11.1513C134.411 16.3387 132.536 18.0855 131.597 18.9589C129.253 21.1423 126.644 21.1423 125.342 21.1423H119.68V1.42236Z" fill="white"/>
<path d="M157.481 1.42236L151.533 12.9907V21.145H148.344V12.9907L142.489 1.42236H146.001L149.614 8.7588C149.741 9.00758 150.029 9.64542 150.175 9.96301C150.473 9.28018 150.663 8.91495 150.758 8.73498L154.257 1.42501H157.483L157.481 1.42236Z" fill="white"/>
<path d="M182.416 1.42306V21.1457H179.397V11.1785C179.397 8.89447 179.429 5.7741 179.444 4.21524H179.112C178.232 8.51071 177.82 10.1225 177.615 10.9297L175.157 21.1457H171.463L169.073 11.0541C168.856 10.1596 167.971 6.19756 167.529 4.21524H167.198C167.266 7.63997 167.266 10.0325 167.266 11.2288V21.1457H164.477V1.42306H169.612L171.899 11.4882C172.677 14.852 173.035 16.9455 173.213 17.9909H173.545C173.74 17.1599 174.099 15.4475 174.277 14.59C174.664 12.74 174.857 11.9381 174.952 11.5358L177.273 1.42041H182.418L182.416 1.42306Z" fill="white"/>
<path d="M195.335 2.03125C197.381 2.15564 198.609 2.15564 199.224 2.15564H204.474C206.876 2.15564 207.905 2.08948 208.419 2.05507C208.705 2.05507 208.705 2.37796 208.705 2.5394C208.739 3.0105 208.739 3.30957 208.739 3.45778C208.739 3.92888 208.717 4.23589 208.705 4.38939C208.705 4.87372 208.5 4.87372 208.395 4.87372C206.486 4.79962 205.144 4.79962 204.471 4.79962H199.222C198.558 4.79962 196.781 4.86578 195.893 4.90019C195.527 4.90019 195.505 4.61171 195.493 4.46614C195.459 4.11944 195.427 3.5557 195.413 3.27516C195.357 2.40707 195.34 2.15829 195.332 2.0339L195.335 2.03125ZM203.855 10.6963C203.74 13.0174 203.518 13.994 203.408 14.481C203.111 15.8466 202.684 16.7306 202.47 17.1752C201.75 18.7261 200.902 19.663 200.48 20.1289C199.429 21.2828 198.712 21.7459 198.353 21.9788C197.907 22.2885 197.739 22.2885 197.656 22.2885C197.393 22.2885 197.242 22.1218 197.164 22.0397C196.408 21.2193 195.518 20.8646 195.071 20.6873C196.959 19.5836 197.683 18.8638 198.044 18.5038C199.061 17.4849 199.512 16.6009 199.736 16.1589C200.399 14.8806 200.568 13.986 200.65 13.5388C200.855 12.4589 200.902 11.2838 200.926 10.6963H196.478C195.357 10.6963 193.764 10.7969 192.967 10.8445C192.704 10.8816 192.674 10.5348 192.657 10.3602C192.474 9.21948 192.474 8.35668 192.474 7.92792C193.789 8.05231 195.566 8.05232 196.454 8.05232H206.976C209.48 8.05232 210.853 7.95174 211.538 7.9041C211.789 7.9041 211.789 8.24287 211.789 8.41226C211.811 8.67162 211.811 9.15331 211.811 9.39151C211.811 10.0982 211.796 10.2728 211.789 10.3602C211.789 10.7942 211.56 10.7942 211.445 10.7942C208.963 10.6936 207.654 10.6936 206.998 10.6936H203.852L203.855 10.6963Z" fill="white"/>
<path d="M230.233 7.2217C232.006 7.81719 232.569 8.23006 232.852 8.43915C233.162 8.68793 233.162 8.81232 233.162 8.87319C233.162 9.08492 232.994 9.24901 232.911 9.3337C232.626 9.59307 232.343 10.2812 232.201 10.6253C230.68 14.5343 229.339 16.4372 228.668 17.39C226.483 20.4178 224.723 21.6775 223.842 22.3048C223.499 22.5774 223.355 22.5774 223.282 22.5774C223.065 22.5774 222.957 22.4609 222.904 22.4027C222.126 21.7199 221.319 21.4632 220.914 21.3361C223.179 19.7111 224.008 18.9145 224.425 18.5175C225.557 17.4244 226.205 16.506 226.53 16.0482C228.588 13.1448 229.326 10.9931 229.697 9.91596C230.121 8.58736 230.197 7.67692 230.233 7.2217ZM222.857 7.83042C224.354 7.06026 224.608 6.95439 224.732 6.89881C224.869 6.82471 224.937 6.82471 224.971 6.82471C225.166 6.82471 225.281 7.00732 225.337 7.09731C226.503 8.7488 226.929 10.1224 227.144 10.8079C227.2 10.9931 227.2 11.0672 227.2 11.1069C227.2 11.3187 227.003 11.4325 226.903 11.4907C226.227 11.9115 225.603 12.1524 225.291 12.2715C225.198 12.3085 225.162 12.3085 225.142 12.3085C224.959 12.3085 224.867 12.0359 224.823 11.8983C223.964 9.50309 223.225 8.38621 222.855 7.82778L222.857 7.83042ZM218.146 9.12197C218.831 8.71175 219.609 8.31476 219.999 8.11626C220.136 8.04215 220.214 8.04215 220.251 8.04215C220.433 8.04215 220.548 8.20889 220.604 8.29094C222.011 10.215 222.416 11.4404 222.616 12.0518C222.709 12.4117 222.708 12.4276 222.708 12.4355C222.708 12.597 222.526 12.7293 222.433 12.7955C221.701 13.256 221.182 13.4704 220.924 13.5762C220.809 13.6265 220.748 13.6265 220.719 13.6265C220.48 13.6265 220.387 13.3619 220.341 13.2295C219.495 10.8846 218.595 9.70952 218.146 9.12197Z" fill="white"/>
<path d="M249.039 4.85007L253.247 4.7495C254.025 4.72568 254.291 4.53512 254.425 4.43984C254.54 4.33927 254.662 4.33927 254.722 4.33927C254.893 4.33927 255.032 4.43984 255.1 4.48748C255.9 5.04592 256.427 5.59112 256.69 5.86637C257 6.16544 257 6.35335 257 6.44863C257 6.72123 256.81 6.89591 256.715 6.98325C256.281 7.35642 256.059 7.83546 255.949 8.0763C253.742 12.9408 252.118 14.9363 251.306 15.9341C249.704 17.8953 248.309 19.1127 247.612 19.7188C245.817 21.2829 244.735 21.9367 244.193 22.2622C244.011 22.3866 243.881 22.3866 243.815 22.3866C243.564 22.3866 243.374 22.204 243.279 22.114C242.399 21.3571 241.499 21.0844 241.048 20.9468C243.896 19.2345 245.1 18.2076 245.703 17.6941C247.2 16.392 248.3 15.1004 248.848 14.4547C250.358 12.6417 250.999 11.5513 251.318 11.0035C252.211 9.4896 252.86 7.99161 253.181 7.24262L247.51 7.41729C244.696 11.202 243.62 12.1547 243.084 12.6311C242.833 12.917 242.672 12.917 242.591 12.917C242.421 12.917 242.306 12.8164 242.248 12.7688C241.184 11.9377 240.392 11.7551 239.994 11.6651C243.918 8.19011 245.503 5.47467 246.295 4.1196C247.371 2.13464 247.575 1.16597 247.678 0.681641C249.668 1.45181 250.163 1.84086 250.411 2.03406C250.65 2.21933 250.65 2.38607 250.65 2.46811C250.65 2.72748 250.475 2.84393 250.387 2.90216C250.238 3.00273 249.948 3.38913 249.804 3.58498C249.553 4.01903 249.209 4.57482 249.039 4.85007Z" fill="white"/>
</svg>
