<svg width="223" height="19" viewBox="0 0 223 19" fill="none" xmlns="http://www.w3.org/2000/svg">
<g clip-path="url(#clip0_353_222)">
<path d="M135.221 7.71106H129.357V11.9871H135.221V7.71106Z" fill="#231815"/>
<path d="M154.831 8.68452C155.643 7.77733 156.144 6.58473 156.144 5.27491C156.144 2.42593 153.802 0.117188 150.906 0.117188H139.312V18.9541H151.93C155.033 18.9541 157.546 16.4772 157.546 13.4192C157.546 11.4112 156.455 9.65286 154.831 8.68452ZM151.242 16.0643H142.916V3.00184H150.218C151.583 3.00184 152.695 4.09251 152.695 5.438C152.695 6.7835 151.588 7.87926 150.218 7.87926H145.569V10.4326H151.242C152.819 10.4326 154.097 11.6915 154.097 13.2459C154.097 14.8004 152.819 16.0592 151.242 16.0592V16.0643Z" fill="#231815"/>
<path d="M100.175 0.117188H87.4427V18.9541H91.0472V3.00184H99.4921C101.002 3.00184 102.233 4.20973 102.233 5.70302C102.233 7.19632 101.007 8.40421 99.4921 8.40421H93.7001V10.9576H100.18C103.215 10.9576 105.682 8.53162 105.682 5.53484C105.682 2.53806 103.215 0.117188 100.175 0.117188Z" fill="#231815"/>
<path d="M197.076 0.117188V14.1022L186.681 0.117188H186.614H183.01V18.9541H186.614V4.96402L197.014 18.9541H197.076H200.68V0.117188H197.076Z" fill="#231815"/>
<path d="M180.708 18.9541L171.762 0.117188H167.434L158.518 18.9541H162.479L169.569 3.03242L173.148 11.4418H166.953V13.9849H174.229L176.349 18.9541H180.708Z" fill="#231815"/>
<path d="M112.048 16.0643V3.00694H125.261V0.117188H108.449V18.9541H125.499V16.0643H112.048Z" fill="#231815"/>
<path d="M124.361 7.71106H114.396V10.2644H124.361V7.71106Z" fill="#231815"/>
<path d="M213.03 9.37255L222.814 0.117188H218.263L208.479 9.37255L218.428 18.9541H223L213.03 9.37255Z" fill="#231815"/>
<path d="M207.977 0.117188H204.373V18.9541H207.977V0.117188Z" fill="#231815"/>
<path d="M41.3969 11.5336H46.1287C45.6063 12.8485 44.6238 14.8311 43.6671 16.4773H42.0691V18.5108H45.446C50.3537 18.5108 53.1617 18.2152 56.0784 17.4813C56.3214 17.9451 56.5748 18.4394 56.8489 19.0001H59.357C58.964 17.9043 57.4591 15.2643 56.368 13.5518H53.7875C54.2581 14.2908 54.6718 14.9585 55.0906 15.6771C52.9704 16.2785 49.7538 16.4212 46.894 16.4569C47.5818 15.1878 48.4299 13.3684 49.278 11.5285H59.4553V9.55103H41.402V11.5285L41.3969 11.5336Z" fill="#231815"/>
<path d="M52.0086 0.112152H48.8954C46.8424 1.83479 44.0705 3.42492 40.8074 4.1945V6.5746C41.9451 6.32487 42.9897 5.9834 44.0033 5.57058V7.40024H56.9007V5.59096C57.847 5.94772 58.8968 6.2739 60.0966 6.5695V4.18941C56.6783 3.34847 53.9013 1.90614 52.0086 0.107056V0.112152ZM44.3653 5.42277C46.3925 4.54617 48.2904 3.33828 50.4468 1.75325C52.1999 3.17519 53.9375 4.40856 56.4611 5.42277H44.3653Z" fill="#231815"/>
<path d="M77.1569 16.4365V6.11597H80.3373V4.1334H77.1569V0.11731H74.2558V4.1334H71.1892V6.11597H74.2558V16.4365H69.5602V18.4191H80.9372V16.4365H77.1569Z" fill="#231815"/>
<path d="M70.6824 13.3225V10.7182C69.9326 10.0505 69.1724 9.43893 68.1588 8.87831C69.5344 6.90084 70.46 4.66345 70.8375 2.46683H67.7606V0.11731H64.9732V2.46683H62.2944V4.44429H68.0088C66.8039 8.1444 64.0837 10.4226 61.8394 11.605L61.8497 14.1329C62.9822 13.6487 64.0268 13.0167 64.9732 12.2726V18.9542H67.7606V11.0342C68.7328 11.6254 69.6274 12.3236 70.6824 13.3225Z" fill="#231815"/>
<path d="M15.4159 9.449H18.5084V7.53269H14.4178V4.76016H18.1309V2.87443H14.4178V0.117188H11.6304V2.87953H10.622C10.8082 2.15072 10.9013 1.36585 10.9013 0.560589H8.71379C8.71379 2.07427 8.56382 3.54208 7.57092 4.38301V6.54396C8.54314 6.24326 9.28781 5.60619 9.82564 4.76526H11.6253V7.53779H7.56575V9.4541H10.3324C9.94458 12.3489 8.39834 14.3111 6.79004 15.7738V18.4342C8.86893 17.2366 10.8289 14.673 11.6253 11.7323V18.9592H14.4126V11.9361C15.0798 14.6424 16.6829 16.7473 18.798 18.4342V15.7738C17.1742 14.0104 15.8865 12.1859 15.4107 9.4541L15.4159 9.449Z" fill="#231815"/>
<path d="M6.99174 11.7272V8.67942C6.54183 8.17486 5.99367 7.57856 5.29036 6.9211V4.76016H7.03311V2.87443H5.29036V0.117188H2.67365V2.87953H0.336184V4.76526H2.50299C2.37371 7.6652 1.33426 9.83124 -0.00512695 11.4927V14.3519C1.23083 13.5059 2.07894 12.1604 2.66847 10.6467V18.9592H5.28519V9.67835C5.81784 10.1676 6.28844 10.7792 6.98657 11.7323L6.99174 11.7272Z" fill="#231815"/>
<path d="M27.7755 9.44902H31.199V7.53271H21.8129V9.44902H24.9416V16.2529C23.7625 16.3702 22.5938 16.4364 21.5233 16.4364V18.4445C24.2435 18.4445 29.3838 17.8686 31.9695 16.8798V14.938C30.8887 15.2846 29.3993 15.6159 27.7703 15.8809V9.44902H27.7755Z" fill="#231815"/>
<path d="M34.7517 4.76526H38.4699V2.87953H34.731V0.117188H31.9281V2.87953H21.0527V4.76526H31.9592C32.2074 10.2441 34.0639 16.8747 39.106 18.9643V16.8951C37.5546 15.4935 34.9896 13.1083 34.7517 4.76526Z" fill="#231815"/>
<path d="M38.4699 0H35.5377V1.73283H38.4699V0Z" fill="#231815"/>
</g>
<defs>
<clipPath id="clip0_353_222">
<rect width="223" height="19" fill="white"/>
</clipPath>
</defs>
</svg>
